<svg xmlns="http://www.w3.org/2000/svg" xmlns:xlink="http://www.w3.org/1999/xlink" width="32" height="32" viewBox="0 0 32 32">
  <defs>
    <clipPath id="clip-path">
      <rect id="사각형_52" data-name="사각형 52" width="32" height="32" transform="translate(1057 2491)" fill="#fff" stroke="#707070" stroke-width="1"/>
    </clipPath>
  </defs>
  <g id="마스크_그룹_16" data-name="마스크 그룹 16" transform="translate(-1057 -2491)" clip-path="url(#clip-path)">
    <path id="pencil-ai-line" d="M23.158,4.175a1.436,1.436,0,0,1,2.03,0l4.06,4.061a1.435,1.435,0,0,1,0,2.03L9.961,29.552H3.871v-6.09ZM6.742,24.651v2.03h2.03l13.37-13.37-2.03-2.03ZM6.066,1.458a.727.727,0,0,1,1.351,0l.363.878a6.268,6.268,0,0,0,3.231,3.339l1.03.458a.762.762,0,0,1,0,1.382L10.952,8a6.264,6.264,0,0,0-3.185,3.231l-.355.812a.726.726,0,0,1-1.34,0l-.355-.812A6.264,6.264,0,0,0,2.532,8L1.442,7.516a.762.762,0,0,1,0-1.382l1.03-.458A6.268,6.268,0,0,0,5.7,2.336ZM22.142,9.251l2.031,2.03,2.03-2.03-2.03-2.03Z" transform="translate(1057.778 2491.778)" fill="#004ab5"/>
  </g>
</svg>
